<?xml version="1.0" encoding="UTF-8"?>
<svg id="Layer_1" data-name="Layer 1" xmlns="http://www.w3.org/2000/svg" viewBox="0 0 474.23 110.31">
  <defs>
    <style>
      .cls-1 {
        fill: #03f;
      }

      .cls-2 {
        fill: blue;
      }

      .cls-3 {
        fill: #fff;
      }
    </style>
  </defs>
  <g>
    <g>
      <path d="m161.42,60.43v4.07h-13.05v-20.53h4.79v16.46h8.26Z"/>
      <path d="m173.31,64.5c-.18-.78-.24-1.59-.21-2.36-1.26,1.8-2.57,2.66-4.85,2.66-2.69,0-4.79-1.44-4.79-4.31,0-2.24,1.41-3.77,3.41-4.52,1.74-.66,4.16-.78,6.01-.96v-.36c0-.66.06-1.44-.39-2-.39-.51-1.14-.72-1.8-.72-1.41,0-2.63.72-2.63,2.21l-4.16-.39c.45-3.68,4.04-4.76,7.24-4.76,1.56,0,3.59.36,4.82,1.38,1.56,1.26,1.41,2.93,1.41,4.76v7.09c0,.78.06,1.53.3,2.27h-4.37Zm-.42-7.27c-1.68.18-4.76.57-4.76,2.78,0,1.2.72,2,1.94,2,.9,0,1.71-.48,2.21-1.26.63-.96.6-1.86.6-2.93v-.6Z"/>
      <path d="m180.7,49.3h4.16v2.57h.06c.9-1.94,2.15-2.87,4.37-2.87,1.44,0,2.84.45,3.74,1.68.84,1.14.84,3.05.84,4.43v9.4h-4.4v-8.17c0-1.56.21-3.83-2-3.83-.78,0-1.5.45-1.86,1.14-.45.87-.51,1.74-.51,2.69v8.17h-4.4v-15.2Z"/>
      <path d="m204.01,49c1.38,0,2.72.21,4.04.66.3-2.3,1.17-2.96,3.44-2.96.42,0,.81.03,1.23.12v2.84c-.39-.06-.78-.15-1.17-.15-.84,0-1.65.39-1.77,1.32.84.93,1.2,1.68,1.2,2.96,0,3.59-3.86,4.64-6.76,4.64-.84,0-1.77-.09-2.54-.21-.42.24-.75.6-.75,1.11,0,.63.3.99.87,1.17.78.21,2.39.27,3.26.3l1.92.09c2.66.15,5.66.72,5.66,4.04,0,2.03-1.47,3.41-3.2,4.13-1.65.69-3.8.81-5.6.81-2.42,0-7.84-.09-7.84-3.53,0-1.56,1.26-2.45,2.63-2.75-1.17-.57-1.94-1.38-1.94-2.72,0-1.89,1.53-2.75,3.05-3.38-1.65-.63-2.69-1.89-2.69-3.71,0-3.68,4.01-4.76,6.97-4.76Zm2.81,15.65c-1.05-.09-3.95-.09-5.96-.24-.54.21-.96.63-.96,1.23,0,.72.48,1.05,1.11,1.23.96.27,2.33.3,3.29.3,1.08,0,4.13.09,4.13-1.47,0-.81-.99-.99-1.62-1.05Zm-5.3-10.95c0,1.5.96,2.3,2.42,2.3s2.63-.78,2.63-2.33-1.26-2.24-2.63-2.24-2.42.84-2.42,2.27Z"/>
      <path d="m223.06,64.5v-2.6h-.06c-.72,1.92-2.27,2.9-4.34,2.9-1.53,0-2.84-.33-3.71-1.71-.84-1.32-.75-2.75-.75-4.22v-9.58h4.4v9.58c0,1.23.12,2.39,1.68,2.39.99,0,1.83-.57,2.21-1.47.3-.69.24-1.56.24-2.33v-8.17h4.4v15.2h-4.07Z"/>
      <path d="m239.97,64.5c-.18-.78-.24-1.59-.21-2.36-1.26,1.8-2.57,2.66-4.85,2.66-2.69,0-4.79-1.44-4.79-4.31,0-2.24,1.41-3.77,3.41-4.52,1.74-.66,4.16-.78,6.01-.96v-.36c0-.66.06-1.44-.39-2-.39-.51-1.14-.72-1.8-.72-1.41,0-2.63.72-2.63,2.21l-4.16-.39c.45-3.68,4.04-4.76,7.24-4.76,1.56,0,3.59.36,4.82,1.38,1.56,1.26,1.41,2.93,1.41,4.76v7.09c0,.78.06,1.53.3,2.27h-4.37Zm-.42-7.27c-1.68.18-4.76.57-4.76,2.78,0,1.2.72,2,1.94,2,.9,0,1.71-.48,2.21-1.26.63-.96.6-1.86.6-2.93v-.6Z"/>
      <path d="m254.03,49c1.38,0,2.72.21,4.04.66.3-2.3,1.17-2.96,3.44-2.96.42,0,.81.03,1.23.12v2.84c-.39-.06-.78-.15-1.17-.15-.84,0-1.65.39-1.77,1.32.84.93,1.2,1.68,1.2,2.96,0,3.59-3.86,4.64-6.76,4.64-.84,0-1.77-.09-2.54-.21-.42.24-.75.6-.75,1.11,0,.63.3.99.87,1.17.78.21,2.39.27,3.26.3l1.92.09c2.66.15,5.66.72,5.66,4.04,0,2.03-1.47,3.41-3.2,4.13-1.65.69-3.8.81-5.6.81-2.42,0-7.84-.09-7.84-3.53,0-1.56,1.26-2.45,2.63-2.75-1.17-.57-1.94-1.38-1.94-2.72,0-1.89,1.53-2.75,3.05-3.38-1.65-.63-2.69-1.89-2.69-3.71,0-3.68,4.01-4.76,6.97-4.76Zm2.81,15.65c-1.05-.09-3.95-.09-5.96-.24-.54.21-.96.63-.96,1.23,0,.72.48,1.05,1.11,1.23.96.27,2.33.3,3.29.3,1.08,0,4.13.09,4.13-1.47,0-.81-.99-.99-1.62-1.05Zm-5.3-10.95c0,1.5.96,2.3,2.42,2.3s2.63-.78,2.63-2.33-1.26-2.24-2.63-2.24-2.42.84-2.42,2.27Z"/>
      <path d="m268.6,57.65l-.03.75c0,1.8,1.02,3.26,2.93,3.26,1.35,0,2.69-.99,2.69-2.39l4.07.3c0,.75-1.77,5.24-6.91,5.24-4.55,0-7.51-3.17-7.51-7.69s2.66-8.11,7.39-8.11c2.12,0,4.31.96,5.57,2.69,1.26,1.74,1.59,3.89,1.56,5.96h-9.76Zm5.36-2.6c-.09-1.65-.63-3.17-2.54-3.17s-2.69,1.44-2.84,3.17h5.39Z"/>
      <path d="m319.21,64.5h-4.79v-20.53h4.79v20.53Z"/>
      <path d="m323.43,49.29h4.16v2.57h.06c.9-1.94,2.15-2.87,4.37-2.87,1.44,0,2.84.45,3.74,1.68.84,1.14.84,3.05.84,4.43v9.4h-4.4v-8.17c0-1.56.21-3.83-2-3.83-.78,0-1.5.45-1.86,1.14-.45.87-.51,1.74-.51,2.69v8.17h-4.4v-15.2Z"/>
      <path d="m348.86,52.77h-3.26v6.04c0,2,.15,2.45,2.04,2.45.39,0,.96-.06,1.47-.12v3.32c-.87.21-1.94.33-2.75.33-1.26,0-2.93-.18-3.92-.99-1.23-1.02-1.23-2.84-1.23-4.34v-6.7h-2.48v-3.5h2.66l.39-4.46,3.83-.3v4.76h3.26v3.5Z"/>
      <path d="m355.92,57.64l-.03.75c0,1.8,1.02,3.26,2.93,3.26,1.35,0,2.69-.99,2.69-2.39l4.07.3c0,.75-1.77,5.24-6.91,5.24-4.55,0-7.51-3.17-7.51-7.69s2.66-8.11,7.39-8.11c2.12,0,4.31.96,5.57,2.69,1.26,1.74,1.59,3.89,1.56,5.96h-9.76Zm5.36-2.6c-.09-1.65-.63-3.17-2.54-3.17s-2.69,1.44-2.84,3.17h5.39Z"/>
      <path d="m368.7,43.97h4.4v20.53h-4.4v-20.53Z"/>
      <path d="m376.95,43.97h4.4v20.53h-4.4v-20.53Z"/>
      <path d="m389.61,47.92h-4.4v-4.25h4.4v4.25Zm0,16.58h-4.4v-15.2h4.4v15.2Z"/>
      <path d="m399.99,48.99c1.38,0,2.72.21,4.04.66.3-2.3,1.17-2.96,3.44-2.96.42,0,.81.03,1.23.12v2.84c-.39-.06-.78-.15-1.17-.15-.84,0-1.65.39-1.77,1.32.84.93,1.2,1.68,1.2,2.96,0,3.59-3.86,4.64-6.76,4.64-.84,0-1.77-.09-2.54-.21-.42.24-.75.6-.75,1.11,0,.63.3.99.87,1.17.78.21,2.39.27,3.26.3l1.92.09c2.66.15,5.66.72,5.66,4.04,0,2.03-1.47,3.41-3.2,4.13-1.65.69-3.8.81-5.6.81-2.42,0-7.84-.09-7.84-3.53,0-1.56,1.26-2.45,2.63-2.75-1.17-.57-1.94-1.38-1.94-2.72,0-1.89,1.53-2.75,3.05-3.38-1.65-.63-2.69-1.89-2.69-3.71,0-3.68,4.01-4.76,6.97-4.76Zm2.81,15.65c-1.05-.09-3.95-.09-5.95-.24-.54.21-.96.63-.96,1.23,0,.72.48,1.05,1.11,1.23.96.27,2.33.3,3.29.3,1.08,0,4.13.09,4.13-1.47,0-.81-.99-.99-1.62-1.05Zm-5.3-10.95c0,1.5.96,2.3,2.42,2.3s2.63-.78,2.63-2.33-1.26-2.24-2.63-2.24-2.42.84-2.42,2.27Z"/>
      <path d="m414.57,57.64l-.03.75c0,1.8,1.02,3.26,2.93,3.26,1.35,0,2.69-.99,2.69-2.39l4.07.3c0,.75-1.77,5.24-6.91,5.24-4.55,0-7.51-3.17-7.51-7.69s2.66-8.11,7.39-8.11c2.12,0,4.31.96,5.57,2.69,1.26,1.74,1.59,3.89,1.56,5.96h-9.76Zm5.36-2.6c-.09-1.65-.63-3.17-2.54-3.17s-2.69,1.44-2.84,3.17h5.39Z"/>
      <path d="m427.19,49.29h4.16v2.57h.06c.9-1.94,2.15-2.87,4.37-2.87,1.44,0,2.84.45,3.74,1.68.84,1.14.84,3.05.84,4.43v9.4h-4.4v-8.17c0-1.56.21-3.83-2-3.83-.78,0-1.5.45-1.86,1.14-.45.87-.51,1.74-.51,2.69v8.17h-4.4v-15.2Z"/>
      <path d="m453.23,55.07c0-1.38-.72-2.72-2.3-2.72-2.42,0-2.72,2.39-2.72,4.34s.03,4.49,2.54,4.49c1.56,0,2.33-1.23,2.48-2.63l4.19.24c-.36,3.77-3.2,6.01-6.91,6.01-4.61,0-7.33-3.26-7.33-7.75s2.81-8.05,7.6-8.05c3.53,0,6.34,2.27,6.64,5.84l-4.19.24Z"/>
      <path d="m464.47,57.64l-.03.75c0,1.8,1.02,3.26,2.93,3.26,1.35,0,2.69-.99,2.69-2.39l4.07.3c0,.75-1.77,5.24-6.91,5.24-4.55,0-7.51-3.17-7.51-7.69s2.66-8.11,7.39-8.11c2.12,0,4.31.96,5.57,2.69,1.26,1.74,1.59,3.89,1.56,5.96h-9.76Zm5.36-2.6c-.09-1.65-.63-3.17-2.54-3.17s-2.69,1.44-2.84,3.17h5.39Z"/>
    </g>
    <g>
      <path d="m148.38,36.88v-16.33h5.47c1.4,0,2.81.17,3.93,1.1,1.07.9,1.67,2.43,1.67,3.81,0,1.26-.52,2.57-1.43,3.45-1.09,1.07-2.45,1.33-3.93,1.33h-3.67v6.64h-2.05Zm5.5-8.33c.98,0,1.83-.1,2.59-.83.59-.6.9-1.43.9-2.26,0-.98-.36-1.95-1.14-2.57-.69-.55-1.38-.62-2.21-.62h-3.59v6.28h3.45Z"/>
      <path d="m172.57,36.88l-3.02-7.07h-4.52v7.07h-2.05v-16.33h6.12c1.33,0,2.62.17,3.71,1,1.1.83,1.74,2.19,1.74,3.57,0,1.93-1.14,3.67-3.05,4.19l3.21,7.57h-2.14Zm-3.71-8.74c1.09,0,2-.07,2.81-.9.57-.57.83-1.36.83-2.14,0-.95-.36-1.74-1.14-2.26-.71-.5-1.4-.52-2.26-.52h-4.07v5.83h3.83Z"/>
      <path d="m179.23,36.88v-16.33h2.05v16.33h-2.05Z"/>
      <path d="m199.56,36.88h-2l-8.31-14.23v14.23h-1.71v-16.33h2.57l7.74,13.31v-13.31h1.71v16.33Z"/>
      <path d="m216.43,31.79c-.76,3.09-2.59,5.33-6.05,5.33-4.71,0-6.64-4.55-6.64-8.57s2.07-8.24,6.81-8.24c3.28,0,5.21,2.21,5.88,5.21l-1.93.36c-.57-2.07-1.59-3.86-4.02-3.86-3.55,0-4.5,3.86-4.5,6.69,0,1.29.21,2.88.76,4.07.67,1.45,1.93,2.62,3.64,2.62,2.5,0,3.67-1.88,4.19-4.02l1.86.4Z"/>
      <path d="m231.45,36.88h-10.57v-16.33h10.33v1.76h-8.28v5.19h6.57v1.64h-6.57v5.97h8.52v1.76Z"/>
      <path d="m241,36.88h-2.05v-14.54h-4.64v-1.79h11.33v1.79h-4.64v14.54Z"/>
      <path d="m247.94,28.84c0-4.07,2-8.52,6.71-8.52s6.71,4.19,6.71,8.21-2.05,8.59-6.69,8.59-6.74-4.19-6.74-8.28Zm11.28-.19c0-1.45-.24-3.14-.98-4.45-.74-1.29-2-2.19-3.52-2.19-3.64,0-4.64,3.93-4.64,6.86s1.14,6.59,4.59,6.59,4.55-4,4.55-6.81Z"/>
      <path d="m277.25,36.88h-2l-8.31-14.23v14.23h-1.71v-16.33h2.57l7.74,13.31v-13.31h1.71v16.33Z"/>
    </g>
    <polygon points="307 55.07 307 57.12 297.43 57.12 297.43 66.68 295.38 66.68 295.38 57.12 285.81 57.12 285.81 55.07 295.38 55.07 295.38 45.5 297.43 45.5 297.43 55.07 307 55.07"/>
  </g>
  <g>
    <g>
      <g>
        <path class="cls-2" d="m36.13,20.57h14.71c2.42,0,4.97,0,7.52.68,4.29,1.18,10.32,5.03,10.32,13.92,0,5.84-2.73,12.12-10.57,13.86-2.42.56-4.72.56-7.4.56h-6.4v14.88h-8.18V20.57Zm8.18,7.02v15.23h5.9c1.74,0,3.23,0,4.66-.37,5.1-1.24,5.41-5.9,5.41-7.46,0-3.23-1.43-4.91-2.18-5.59-2.05-1.74-4.91-1.8-7.58-1.8h-6.21Zm29.95-7.02h8.18s0,36.4,0,36.4h17.74v7.51h-25.92V20.57ZM0,44l62.26,66.32,53.15-45.84-8.15-.03v-31.45L54.78,0,0,44Z"/>
        <polygon class="cls-1" points="133.07 49.2 115.41 38.11 115.41 64.47 133.07 49.2"/>
      </g>
      <rect class="cls-2" x="107.26" y="20.56" width="8.15" height="8.15"/>
    </g>
    <g>
      <polygon class="cls-3" points="115.41 38.11 107.26 32.98 107.26 64.47 115.41 64.47 115.41 38.11"/>
      <path class="cls-3" d="m36.13,20.57h14.71c2.42,0,4.97,0,7.52.68,4.29,1.18,10.32,5.03,10.32,13.92,0,5.84-2.73,12.12-10.57,13.86-2.42.56-4.72.56-7.4.56h-6.4v14.88h-8.18V20.57Zm8.18,7.02v15.23h5.9c1.74,0,3.23,0,4.66-.37,5.1-1.24,5.41-5.9,5.41-7.46,0-3.23-1.43-4.91-2.18-5.59-2.05-1.74-4.91-1.8-7.58-1.8h-6.21Zm29.95-7.02h8.18s0,36.4,0,36.4h17.74v7.51h-25.92V20.57Z"/>
    </g>
  </g>
</svg>